<?xml version="1.0" encoding="UTF-8" standalone="no"?>
<!DOCTYPE svg PUBLIC "-//W3C//DTD SVG 1.0//EN" "http://www.w3.org/TR/2001/PR-SVG-20010719/DTD/svg10.dtd">
<svg width="38cm" height="33cm" viewBox="-261 -292 760 648" xmlns="http://www.w3.org/2000/svg" xmlns:xlink="http://www.w3.org/1999/xlink">
  <defs/>
  <g id="Background">
    <rect style="fill: #ffffff; fill-opacity: 1; stroke-opacity: 0; stroke-width: 2.35099e-37; stroke: #000000" x="-260.295" y="-291.089" width="759.269" height="647.421" rx="0" ry="0"/>
    <text font-size="12.7998" style="fill: #000000; fill-opacity: 1; stroke: none;text-anchor:start;font-family:sans-serif;font-style:normal;font-weight:normal" x="-346.405" y="-31.0088">
      <tspan x="-346.405" y="-31.0088"></tspan>
    </text>
    <text font-size="12.7998" style="fill: #000000; fill-opacity: 1; stroke: none;text-anchor:start;font-family:sans-serif;font-style:normal;font-weight:normal" x="-365.475" y="-27.0093">
      <tspan x="-365.475" y="-27.0093"></tspan>
    </text>
    <text font-size="12.7998" style="fill: #000000; fill-opacity: 1; stroke: none;text-anchor:start;font-family:sans-serif;font-style:normal;font-weight:normal" x="-354.814" y="-52.8719">
      <tspan x="-354.814" y="-52.8719"></tspan>
    </text>
    <g>
      <rect style="fill: #ffffff; fill-opacity: 1; stroke-opacity: 1; stroke-width: 2; stroke-dasharray: 4; stroke: #000000" x="-241.339" y="-281.875" width="550.744" height="628.993" rx="0" ry="0"/>
      <text font-size="12.7998" style="fill: #000000; fill-opacity: 1; stroke: none;text-anchor:start;font-family:sans-serif;font-style:normal;font-weight:normal" x="-136.86" y="-112.313">
        <tspan x="-136.86" y="-112.313"></tspan>
      </text>
      <text font-size="12.7998" style="fill: #000000; fill-opacity: 1; stroke: none;text-anchor:start;font-family:sans-serif;font-style:normal;font-weight:normal" x="-137.047" y="26.243">
        <tspan x="-137.047" y="26.243"></tspan>
      </text>
      <text font-size="12.8" style="fill: #000000; fill-opacity: 1; stroke: none;text-anchor:start;font-family:Anonymous Pro;font-style:normal;font-weight:normal" x="282.6" y="337.192">
        <tspan x="282.6" y="337.192">NAS</tspan>
      </text>
      <line style="fill: none; stroke-opacity: 1; stroke-width: 2; stroke: #000000" x1="390.414" y1="109.976" x2="296.018" y2="109.917"/>
      <polygon style="fill: #000000; fill-opacity: 1; stroke-opacity: 1; stroke-width: 2; stroke: #000000" fill-rule="evenodd" points="296.021,104.917 286.018,109.911 296.015,114.917 "/>
      <text font-size="12.7998" style="fill: #000000; fill-opacity: 1; stroke: none;text-anchor:start;font-family:sans-serif;font-style:normal;font-weight:normal" x="170.407" y="206.599">
        <tspan x="170.407" y="206.599"></tspan>
      </text>
      <text font-size="12.7998" style="fill: #000000; fill-opacity: 1; stroke: none;text-anchor:start;font-family:sans-serif;font-style:normal;font-weight:normal" x="-119.449" y="-187.478">
        <tspan x="-119.449" y="-187.478"></tspan>
      </text>
      <text font-size="12.7998" style="fill: #000000; fill-opacity: 1; stroke: none;text-anchor:start;font-family:sans-serif;font-style:normal;font-weight:normal" x="-132.903" y="-179.069">
        <tspan x="-132.903" y="-179.069"></tspan>
      </text>
      <text font-size="12.7998" style="fill: #000000; fill-opacity: 1; stroke: none;text-anchor:start;font-family:sans-serif;font-style:normal;font-weight:normal" x="-110.199" y="-173.183">
        <tspan x="-110.199" y="-173.183"></tspan>
      </text>
      <text font-size="12.7998" style="fill: #000000; fill-opacity: 1; stroke: none;text-anchor:start;font-family:sans-serif;font-style:normal;font-weight:normal" x="-110.199" y="-193.364">
        <tspan x="-110.199" y="-193.364"></tspan>
      </text>
      <text font-size="12.7998" style="fill: #000000; fill-opacity: 1; stroke: none;text-anchor:start;font-family:sans-serif;font-style:normal;font-weight:normal" x="-109.358" y="71.5163">
        <tspan x="-109.358" y="71.5163"></tspan>
      </text>
      <rect style="fill: #b3b3b3; fill-opacity: 1; stroke-opacity: 1; stroke-width: 1.6; stroke: #000000" x="23.8883" y="241.074" width="73.3861" height="32.2899" rx="0" ry="0"/>
      <rect style="fill: #000000; fill-opacity: 1; stroke: none" x="31.2269" y="252.082" width="3.6693" height="3.52253" rx="0" ry="0"/>
      <rect style="fill: #000000; fill-opacity: 1; stroke: none" x="38.5655" y="252.082" width="3.6693" height="3.52253" rx="0" ry="0"/>
      <rect style="fill: #000000; fill-opacity: 1; stroke: none" x="45.9041" y="252.082" width="3.6693" height="3.52253" rx="0" ry="0"/>
      <rect style="fill: #000000; fill-opacity: 1; stroke: none" x="53.2427" y="252.082" width="3.6693" height="3.52253" rx="0" ry="0"/>
      <rect style="fill: #000000; fill-opacity: 1; stroke: none" x="60.5813" y="252.082" width="3.6693" height="3.52253" rx="0" ry="0"/>
      <rect style="fill: #000000; fill-opacity: 1; stroke: none" x="67.9199" y="252.082" width="3.6693" height="3.52253" rx="0" ry="0"/>
      <rect style="fill: #000000; fill-opacity: 1; stroke: none" x="75.2585" y="252.082" width="3.6693" height="3.52253" rx="0" ry="0"/>
      <rect style="fill: #000000; fill-opacity: 1; stroke: none" x="82.5971" y="252.082" width="3.6693" height="3.52253" rx="0" ry="0"/>
      <text font-size="12.8" style="fill: #000000; fill-opacity: 1; stroke: none;text-anchor:middle;font-family:Anonymous Pro;font-style:normal;font-weight:normal" x="60.5813" y="286.032">
        <tspan x="60.5813" y="286.032">Default NAS Network</tspan>
        <tspan x="60.5813" y="302.032">192.168.0.101</tspan>
      </text>
      <rect style="fill: #b3b3b3; fill-opacity: 1; stroke-opacity: 1; stroke-width: 1.6; stroke: #000000" x="237.384" y="84.5923" width="46.857" height="37.4856" rx="0" ry="0"/>
      <rect style="fill: #ffffff; fill-opacity: 1; stroke-opacity: 1; stroke-width: 1.6; stroke: #000000" x="243.476" y="90.9648" width="34.6742" height="24.7405" rx="0" ry="0"/>
      <rect style="fill: #b3b3b3; fill-opacity: 1; stroke-opacity: 1; stroke-width: 1.6; stroke: #000000" x="252.847" y="109.708" width="15.9314" height="5.99769" rx="0" ry="0"/>
      <path style="fill: none; stroke-opacity: 1; stroke-width: 1.6; stroke: #000000" d="M 250.036 90.9648 L 250.036,93.9637"/>
      <path style="fill: none; stroke-opacity: 1; stroke-width: 1.6; stroke: #000000" d="M 252.847 90.9648 L 252.847,93.9637"/>
      <path style="fill: none; stroke-opacity: 1; stroke-width: 1.6; stroke: #000000" d="M 256.127 90.9648 L 256.127,93.9637"/>
      <path style="fill: none; stroke-opacity: 1; stroke-width: 1.6; stroke: #000000" d="M 259.407 90.9648 L 259.407,93.9637"/>
      <path style="fill: none; stroke-opacity: 1; stroke-width: 1.6; stroke: #000000" d="M 262.218 90.9648 L 262.218,93.9637"/>
      <path style="fill: none; stroke-opacity: 1; stroke-width: 1.6; stroke: #000000" d="M 265.498 90.9648 L 265.498,93.9637"/>
      <path style="fill: none; stroke-opacity: 1; stroke-width: 1.6; stroke: #000000" d="M 268.778 90.9648 L 268.778,93.9637"/>
      <path style="fill: none; stroke-opacity: 1; stroke-width: 1.6; stroke: #000000" d="M 271.59 90.9648 L 271.59,93.9637"/>
      <text font-size="12.8" style="fill: #000000; fill-opacity: 1; stroke: none;text-anchor:middle;font-family:Anonymous Pro;font-style:normal;font-weight:normal" x="260.813" y="148.272">
        <tspan x="260.813" y="148.272">eth0</tspan>
      </text>
      <text font-size="12.7998" style="fill: #000000; fill-opacity: 1; stroke: none;text-anchor:start;font-family:sans-serif;font-style:normal;font-weight:normal" x="365.745" y="-145.434">
        <tspan x="365.745" y="-145.434"></tspan>
      </text>
      <text font-size="12.7998" style="fill: #000000; fill-opacity: 1; stroke: none;text-anchor:start;font-family:sans-serif;font-style:normal;font-weight:normal" x="260.813" y="109.895">
        <tspan x="260.813" y="109.895"></tspan>
      </text>
      <text font-size="12.7998" style="fill: #000000; fill-opacity: 1; stroke: none;text-anchor:start;font-family:sans-serif;font-style:normal;font-weight:normal" x="260.813" y="109.895">
        <tspan x="260.813" y="109.895"></tspan>
      </text>
      <text font-size="12.7998" style="fill: #000000; fill-opacity: 1; stroke: none;text-anchor:start;font-family:sans-serif;font-style:normal;font-weight:normal" x="260.813" y="109.895">
        <tspan x="260.813" y="109.895"></tspan>
      </text>
      <text font-size="12.7998" style="fill: #000000; fill-opacity: 1; stroke: none;text-anchor:start;font-family:sans-serif;font-style:normal;font-weight:normal" x="60.5813" y="-52.0475">
        <tspan x="60.5813" y="-52.0475"></tspan>
      </text>
      <text font-size="12.7998" style="fill: #000000; fill-opacity: 1; stroke: none;text-anchor:start;font-family:sans-serif;font-style:normal;font-weight:normal" x="114.626" y="228.048">
        <tspan x="114.626" y="228.048"></tspan>
      </text>
      <rect style="fill: #ffffff; fill-opacity: 1; stroke-opacity: 1; stroke-width: 2; stroke-dasharray: 4; stroke: #000000" x="-219.169" y="-260.669" width="415.055" height="426.419" rx="0" ry="0"/>
      <text font-size="14.6756" style="fill: #000000; fill-opacity: 1; stroke: none;text-anchor:start;font-family:Anonymous Pro;font-style:normal;font-weight:normal" x="141.617" y="-244.116">
        <tspan x="141.617" y="-244.116">docker</tspan>
      </text>
      <rect style="fill: #b3b3b3; fill-opacity: 1; stroke-opacity: 1; stroke-width: 1.6; stroke: #000000" x="23.8883" y="-68.1924" width="73.3861" height="32.2899" rx="0" ry="0"/>
      <rect style="fill: #000000; fill-opacity: 1; stroke: none" x="31.2269" y="-57.1845" width="3.6693" height="3.52253" rx="0" ry="0"/>
      <rect style="fill: #000000; fill-opacity: 1; stroke: none" x="38.5655" y="-57.1845" width="3.6693" height="3.52253" rx="0" ry="0"/>
      <rect style="fill: #000000; fill-opacity: 1; stroke: none" x="45.9041" y="-57.1845" width="3.6693" height="3.52253" rx="0" ry="0"/>
      <rect style="fill: #000000; fill-opacity: 1; stroke: none" x="53.2427" y="-57.1845" width="3.6693" height="3.52253" rx="0" ry="0"/>
      <rect style="fill: #000000; fill-opacity: 1; stroke: none" x="60.5813" y="-57.1845" width="3.6693" height="3.52253" rx="0" ry="0"/>
      <rect style="fill: #000000; fill-opacity: 1; stroke: none" x="67.9199" y="-57.1845" width="3.6693" height="3.52253" rx="0" ry="0"/>
      <rect style="fill: #000000; fill-opacity: 1; stroke: none" x="75.2585" y="-57.1845" width="3.6693" height="3.52253" rx="0" ry="0"/>
      <rect style="fill: #000000; fill-opacity: 1; stroke: none" x="82.5971" y="-57.1845" width="3.6693" height="3.52253" rx="0" ry="0"/>
      <text font-size="12.8" style="fill: #000000; fill-opacity: 1; stroke: none;text-anchor:middle;font-family:Anonymous Pro;font-style:normal;font-weight:normal" x="60.5813" y="-23.2348">
        <tspan x="60.5813" y="-23.2348">macvlan network</tspan>
        <tspan x="60.5813" y="-7.2348">192.168.0.200 - 192.168.0.207</tspan>
      </text>
      <line style="fill: none; stroke-opacity: 1; stroke-width: 2; stroke: #000000" x1="236.957" y1="90.6011" x2="127.429" y2="2.01743"/>
      <polygon style="fill: #000000; fill-opacity: 1; stroke-opacity: 1; stroke-width: 2; stroke: #000000" fill-rule="evenodd" points="130.573,-1.87021 119.654,-4.27104 124.285,5.90508 "/>
      <line style="fill: none; stroke-opacity: 1; stroke-width: 2; stroke: #000000" x1="243.19" y1="122.861" x2="92.4783" y2="233.75"/>
      <polygon style="fill: #000000; fill-opacity: 1; stroke-opacity: 1; stroke-width: 2; stroke: #000000" fill-rule="evenodd" points="89.5151,229.723 84.4236,239.677 95.4415,237.778 "/>
      <text font-size="12.7998" style="fill: #000000; fill-opacity: 1; stroke: none;text-anchor:start;font-family:sans-serif;font-style:normal;font-weight:normal" x="161.409" y="-253.068">
        <tspan x="161.409" y="-253.068"></tspan>
      </text>
      <line style="fill: none; stroke-opacity: 1; stroke-width: 2; stroke: #000000" x1="42.2732" y1="-68.9777" x2="-76.3913" y2="-178.711"/>
      <polygon style="fill: #000000; fill-opacity: 1; stroke-opacity: 1; stroke-width: 2; stroke: #000000" fill-rule="evenodd" points="-72.9966,-182.382 -83.7333,-185.501 -79.786,-175.041 "/>
      <line style="fill: none; stroke-opacity: 1; stroke-width: 2; stroke: #000000" x1="23.0974" y1="-52.0501" x2="-73.4675" y2="-52.0569"/>
      <polygon style="fill: #000000; fill-opacity: 1; stroke-opacity: 1; stroke-width: 2; stroke: #000000" fill-rule="evenodd" points="-73.4671,-57.0569 -83.4675,-52.0576 -73.4678,-47.0569 "/>
      <line style="fill: none; stroke-opacity: 1; stroke-width: 2; stroke: #000000" x1="9.5699" y1="-4.8824" x2="-76.3907" y2="74.5967"/>
      <polygon style="fill: #000000; fill-opacity: 1; stroke-opacity: 1; stroke-width: 2; stroke: #000000" fill-rule="evenodd" points="-79.7852,70.9254 -83.7332,81.3855 -72.9963,78.2679 "/>
      <line style="fill: none; stroke-opacity: 1; stroke-width: 2; stroke: #000000" x1="23.097" y1="257.143" x2="-71.5755" y2="256.95"/>
      <polygon style="fill: #000000; fill-opacity: 1; stroke-opacity: 1; stroke-width: 2; stroke: #000000" fill-rule="evenodd" points="-71.5653,251.95 -81.5755,256.93 -71.5857,261.95 "/>
      <g>
        <rect style="fill: #d9d9cd; fill-opacity: 1; stroke-opacity: 1; stroke-width: 2; stroke: #000000" x="390.414" y="71.8729" width="76.2067" height="63.5056" rx="0" ry="0"/>
        <rect style="fill: none; stroke-opacity: 1; stroke-width: 0.2; stroke: #000000" x="390.414" y="71.8729" width="76.2067" height="63.5056" rx="0" ry="0"/>
        <rect style="fill: #a1a1a1; fill-opacity: 1; stroke-opacity: 1; stroke-width: 2; stroke: #000000" x="394.648" y="76.1066" width="67.7393" height="50.8045" rx="0" ry="0"/>
        <rect style="fill: none; stroke-opacity: 1; stroke-width: 0.2; stroke: #000000" x="394.648" y="76.1066" width="67.7393" height="50.8045" rx="0" ry="0"/>
        <polygon style="fill: #d9d9cd; fill-opacity: 1; stroke-opacity: 1; stroke-width: 2; stroke: #000000" fill-rule="evenodd" points="403.115,135.379 453.92,135.379 441.219,139.612 415.816,139.612 "/>
        <polygon style="fill: none; stroke-opacity: 1; stroke-width: 0.2; stroke: #000000" points="403.115,135.379 453.92,135.379 441.219,139.612 415.816,139.612 "/>
        <rect style="fill: #d9d9cd; fill-opacity: 1; stroke-opacity: 1; stroke-width: 2; stroke: #000000" x="415.816" y="139.612" width="25.4022" height="4.23371" rx="0" ry="0"/>
        <rect style="fill: none; stroke-opacity: 1; stroke-width: 0.2; stroke: #000000" x="415.816" y="139.612" width="25.4022" height="4.23371" rx="0" ry="0"/>
        <rect style="fill: #d9d9cd; fill-opacity: 1; stroke-opacity: 1; stroke-width: 2; stroke: #000000" x="403.115" y="143.846" width="50.8045" height="4.23371" rx="0" ry="0"/>
        <rect style="fill: none; stroke-opacity: 1; stroke-width: 0.2; stroke: #000000" x="403.115" y="143.846" width="50.8045" height="4.23371" rx="0" ry="0"/>
      </g>
      <text font-size="12.8" style="fill: #000000; fill-opacity: 1; stroke: none;text-anchor:start;font-family:Anonymous Pro;font-style:normal;font-weight:normal" x="376.018" y="167.483">
        <tspan x="376.018" y="167.483">Client Computer</tspan>
      </text>
      <text font-size="13.5467" style="fill: #000000; fill-opacity: 1; stroke: none;text-anchor:middle;font-family:Anonymous Pro;font-style:normal;font-weight:normal" x="131.861" y="64.844">
        <tspan x="131.861" y="64.844">ip route</tspan>
        <tspan x="131.861" y="81.7773">192.168.0.200/29</tspan>
      </text>
      <line style="fill: none; stroke-opacity: 1; stroke-width: 2; stroke: #000000" x1="60.5813" y1="240.287" x2="60.5813" y2="6.11457"/>
      <polygon style="fill: #000000; fill-opacity: 1; stroke-opacity: 1; stroke-width: 2; stroke: #000000" fill-rule="evenodd" points="65.5813,6.11457 60.5813,-3.88543 55.5813,6.11457 "/>
      <rect style="fill: #ffffff; fill-opacity: 1; stroke-opacity: 1; stroke-width: 2; stroke: #000000" x="-189.627" y="-106.39" width="105.159" height="108.665" rx="0" ry="0"/>
      <text font-size="13.5467" style="fill: #000000; fill-opacity: 1; stroke: none;text-anchor:middle;font-family:Anonymous Pro;font-style:normal;font-weight:normal" x="-137.047" y="-56.2244">
        <tspan x="-137.047" y="-56.2244">homeassistant</tspan>
        <tspan x="-137.047" y="-39.2911">192.168.0.202</tspan>
      </text>
      <rect style="fill: #ffffff; fill-opacity: 1; stroke-opacity: 1; stroke-width: 2; stroke: #000000" x="-189.627" y="-240.512" width="105.159" height="108.665" rx="0" ry="0"/>
      <text font-size="13.5467" style="fill: #000000; fill-opacity: 1; stroke: none;text-anchor:middle;font-family:Anonymous Pro;font-style:normal;font-weight:normal" x="-137.047" y="-198.813">
        <tspan x="-137.047" y="-198.813">nginx</tspan>
        <tspan x="-137.047" y="-181.88">proxy manager</tspan>
        <tspan x="-137.047" y="-164.946">192.168.0.201</tspan>
      </text>
      <rect style="fill: #ffffff; fill-opacity: 1; stroke-opacity: 1; stroke-width: 2; stroke: #000000" x="-189.627" y="27.7321" width="105.159" height="108.665" rx="0" ry="0"/>
      <text font-size="13.5467" style="fill: #000000; fill-opacity: 1; stroke: none;text-anchor:middle;font-family:Anonymous Pro;font-style:normal;font-weight:normal" x="-137.047" y="77.8977">
        <tspan x="-137.047" y="77.8977">pihole</tspan>
        <tspan x="-137.047" y="94.831">192.168.0.203</tspan>
      </text>
      <rect style="fill: #ffffff; fill-opacity: 1; stroke-opacity: 1; stroke-width: 2; stroke: #000000" x="-187.735" y="202.595" width="105.159" height="108.665" rx="0" ry="0"/>
      <text font-size="13.5467" style="fill: #000000; fill-opacity: 1; stroke: none;text-anchor:middle;font-family:Anonymous Pro;font-style:normal;font-weight:normal" x="-135.155" y="244.294">
        <tspan x="-135.155" y="244.294">NAS Web UI</tspan>
        <tspan x="-135.155" y="261.228">(DSM)</tspan>
        <tspan x="-135.155" y="278.161">192.168.0.101</tspan>
      </text>
      <text font-size="12.7998" style="fill: #000000; fill-opacity: 1; stroke: none;text-anchor:start;font-family:sans-serif;font-style:normal;font-weight:normal" x="-137.047" y="-52.0577">
        <tspan x="-137.047" y="-52.0577"></tspan>
      </text>
      <text font-size="12.7998" style="fill: #000000; fill-opacity: 1; stroke: none;text-anchor:start;font-family:sans-serif;font-style:normal;font-weight:normal" x="-129.544" y="-57.616">
        <tspan x="-129.544" y="-57.616"></tspan>
      </text>
      <text font-size="12.7998" style="fill: #000000; fill-opacity: 1; stroke: none;text-anchor:start;font-family:sans-serif;font-style:normal;font-weight:normal" x="60.5813" y="-52.0475">
        <tspan x="60.5813" y="-52.0475"></tspan>
      </text>
    </g>
  </g>
</svg>
